<?xml version="1.0" encoding="UTF-8"?>
<svg id="Layer_1" data-name="Layer 1" xmlns="http://www.w3.org/2000/svg" viewBox="0 0 800 800">
  <defs>
    <style>
      .cls-1 {
        fill: #e8e9e9;
        stroke-width: 0px;
      }
    </style>
  </defs>
  <polygon class="cls-1" points="185.32 18.34 185.32 151.6 113.76 80.04 185.32 18.34"/>
  <path class="cls-1" d="M209.18,638.54c0-26.33-21.33-47.71-47.71-47.71s-47.71,21.37-47.71,47.71v143.12H18.35v-381.66c105.37,0,200.79,42.71,269.87,111.79,47.48,47.44,82.51,107.36,99.76,174.46,7.86,30.49,12.02,62.48,12.02,95.41H137.62v-95.41h23.85c26.37,0,47.71-21.37,47.71-47.71Z"/>
  <path class="cls-1" d="M528.66,123.15c-64.73,64.73-104.8,154.19-104.8,253v405.51c197.62,0,357.8-160.18,357.8-357.8V18.34c-98.81,0-188.23,40.04-253,104.8ZM757.8,376.15h-23.85v95.41h-23.85v-95.41h-23.85v95.41h-23.85v-95.41h-23.85v95.41h-23.85v-95.41h-23.85v95.41h-23.85v-95.41h-23.85v95.41h-23.85v-95.41h-23.85v95.41h-23.85v-95.41h-23.85c0-89.19,34.73-173.04,97.82-236.13,57.44-57.44,132.05-91.37,212.28-96.98v333.11Z"/>
  <path class="cls-1" d="M18.34,18.34v357.8h357.8L18.34,18.34ZM42.2,137.61v-64.19l68.51,64.19H42.2ZM161.48,317.43c-20.27,0-36.7-16.43-36.7-36.7s16.43-36.7,36.7-36.7,36.7,16.43,36.7,36.7-16.43,36.7-36.7,36.7Z"/>
</svg>